# xmcd
#
# Track frame offsets: 
#        150
#        12229
#        24266
#        35954
#        49286
#        62674
#        73150
#        85235
#        97091
#        108954
#        120238
#        129043
#        140258
#        153744
#        165251
#        177037
#        190105
#        202887
#        214025
#        226584
#        238036
#        250769
#        262430
#
# Disc length: 3664 seconds
#
# Revision: 0
# Processed by: cddbd v1.5.2PL0 Copyright (c) Steve Scherf et al.
# Submitted via: ExactAudioCopy v0.99pb4
#
DISCID=340e4e17
DTITLE=Texas Ruby - Teardrops In My Heart
DYEAR=2010
DGENRE=Country
TTITLE0=Love Me Now (With Curly Fox)
TTITLE1=Teardrops And Empty Arms
TTITLE2=Big Silver Tears (With Curly Fox) 
TTITLE3=Falling Leaf
TTITLE4=It's Raining Teardrops In My Heart
TTITLE5=Shanty Street (With Curly Fox)
TTITLE6=We Live In Two Different Worlds
TTITLE7=The Letter That Broke My Heart
TTITLE8=Soldiers Return
TTITLE9=Don't Let That Man Get You Down
TTITLE10=The Twilight Waltz (With Curly Fox)
TTITLE11=With Tears In My Eyes
TTITLE12=You'll Remember And Be Blue
TTITLE13=I'll Take Back All I've Said About You
TTITLE14=Even Though I'll Shed A Million Tears
TTITLE15=If You Don't Want Me Then Set Me Free
TTITLE16=The Code Of The Mountains
TTITLE17=Ain't You Sorry That You Lied
TTITLE18=Those Dreams Are Gone
TTITLE19=Travellin' Blues
TTITLE20=Have You Got Someone Else On The String
TTITLE21=It's Your Time To Be Blue
TTITLE22=It's Over Forever
EXTD=
EXTT0=
EXTT1=
EXTT2=
EXTT3=
EXTT4=
EXTT5=
EXTT6=
EXTT7=
EXTT8=
EXTT9=
EXTT10=
EXTT11=
EXTT12=
EXTT13=
EXTT14=
EXTT15=
EXTT16=
EXTT17=
EXTT18=
EXTT19=
EXTT20=
EXTT21=
EXTT22=
PLAYORDER=
